<?xml version="1.0"?>
    
<!--********* Copyright (c) 2024 Pareto Softare, LLC DBA Simplemaps.com ***************************************
************* Free for Commercial Use, full terms at  https://simplemaps.com/resources/svg-license ************
************* Attribution is appreciated! https://simplemaps.com *******************************************-->

<svg baseprofile="tiny" fill="#6f9c76" height="513" stroke="#ffffff" stroke-linecap="round" stroke-linejoin="round" stroke-width=".5" version="1.2" viewbox="0 0 1000 513" width="1000" xmlns="http://www.w3.org/2000/svg">
 <g id="features">
  <path d="M661.7 99.9l0.1-0.1 0.4-0.5 0.6-4.6 0-5.6 0.4-4.8 2.2-3.7 1.6-1.4 0.1-0.1 4.6-4 0.6-3.5 1.2-2.1 0.5-2.2 0.7-1.7 1.1-0.5 0.6-0.2 0.1 0 0.2 0 6 0.9 6.2 2.5 2.4-0.2 0.1-0.2 1.2-3-0.2-0.3-0.5-1.2-0.6-1.4-0.2-1.2 0.2-1.2 0.9-2.3 2.5-11.4 0-5-0.5-5.5 0.1-5.2 1.6-3.8-0.1-1 0-0.8 0.2-0.7 0.3-0.3 2.1-0.2 0.6-0.1 6.6 2.3 1.1 0.1 0.6 0 7.6 0.6 0.8 2.6 0.5 2.5 0 2.4-0.8 2.6 2.4 0.1 9.1-2.5 0.6-0.4 1.2-1.4 0.4-0.6 0.4-0.9 0.3-2.5 0.5-0.7 0.9 0 0.6 0.7 0.1 0.1 0.4 0.8 0.6 0.5 5.6 0 2.6 0.8 5.8 2.9 1.8 0.6 0.9 0.3 2.6 0.9 2.5 1.5 4.2 3.6 0.8 0.7 0.9 0.8 2.7 1.1 7.1 2.7 9.3 5.3 2.7 0.6 2.7 0 1.6-0.5 0.4-0.1 3.2-1.7 0.6-0.3 0.2-0.1 0.3-0.2 1-0.2 2.5-0.1 1.1 0 0.7 0.6 0.1 0.1 0.4 2.1 0.6 0.9 0.8 0.4 2.3 0.1 1.3 1 0.9 0.4 1-0.1-1.2 1.7 1.5-0.4 1.3 0.1 0.9 0.8 0.1 1.9 2-0.5 0.7 0.7 0 1.3 0.1 0.9 12 8.7 1.5 0.7 0.3 0.1 1.4 0.6 0.2 0.1 2.9 1.3 1-0.1 9-0.5 1.1-0.1 5.4 0.8 6.7 1 4.5 0.7 0.2-0.1 2.4-0.4 1.6 1.3 0.7 0.2 1.9-0.6 1.3-1.2 0-0.1 6-10.3 2.1-1.4 1.6 0.3 1.8 0.3 1.2-0.1 2-0.8 0.2-0.1 1.1-0.2 0.4 0.2 0.7 0.2 2 1.3 2.3 0.7 4.8 1.4 2.3 0.2 1.7 0.8 0.5 0.2 1 2.2 0.4 2.5 0.9 2.2 1.5 1.1 0.9 0.1 0.9 0.2 0.1 0 4.6-0.2 1.8 0.7 1 0.6 3.3 2.2 2.2 0.9 1.9-0.3 0.4 0 4.6-1.7 1.9 0.2 0.1 0 2.7 4 1.7 11.9 1.4 1.7 0.1 0 2.6 3.1 1.1 8.4-0.6 2.3-0.3 0.9-1.9 2.1-2 1.6-0.9 1.7-0.6 2.4-3.1 4.5-1.2 2.4-0.5 2.6-1.1 9.6-0.3 1.1-0.3 0.5-0.2 0.8-0.1 2 0.4 1.1 0.9 0.6 2.4 0.2 0.7 0.4 1.3 1 1.2 1.4 0.5 1.4-0.3 0.8-0.4 1.1-0.2 0.9 0.5 0.3 0.3 0.4 0.4 0.9 0.4 1 0.1 0.9 0.4 1 0.9 0.6 1.1 0.5 1.3 1.2 0.8 0.3 0.4 0.6 0.1 0.8-0.1 2 0 0.9 1.9 6.4 0.6 3.2 0 3.9 0.8 2.8 3 3.3 1.7 1 1.9 0.3 1.2 0.8 1.8 3.3-1.5 1.5-0.8 0.4-1 0.3-1.4-0.3-1.1-0.7-1.2-0.6-0.9 0.4-1.6 1.6-0.4 2.7 0.1 1.2 0.3 1.4-0.1 1.5-0.9 1.6-1.4 0.9-1.9-1-3.7-2.8-1.8-0.9-2.5 0.3-2.7 1.3-4.9 3.6-5 2.3-1.4-0.2-1.4 0.3-2.5 1.2-3 2.4-1.6 4.5-1.2 2.2-1.7 1.6-4.1 2.9-2.3 2.4-4.7 2.3-8.4-2.7-4.1 0.2-3.5 1.1-5.7 4.5-1.9 2-1.8 3.5-0.3 6.9-0.4 2-0.7 1.6-1.5 1.7-1.4 1.2-4.1 0.5 0 10.8 0.9 2.2 1.8 3.1 4.1 4.8 3.5 5.4-4 7.7-0.7 1.1-1.2 2.1-0.6 2-0.4 3.9 0.4 2.5 0.6 2.1 0 2.2-0.3 1.8-6.2 6.7-1.9 1.5-3 1.6-3 0.6-6.9-0.2-4.1-3.5-1.3-2.6-0.7-1.9-0.2-0.8-0.1-1.2-0.3-1.3-0.4-0.9-0.4-0.5-0.5-0.2-2.8 1.4-1.2 0.4-0.9 0-0.9-0.4-1.1-1.1-2.9-1.6-9.8-1.7-1.4-4-1.5-2.8-3.1-2.4-2.9 0-0.9-0.2-0.7-0.4-0.3-1.1 0.1-0.8 0.5-1.7 0.2-1.3-0.1-1.2-0.2-1-0.1-0.5-0.8-1.4-0.6-0.7-0.9-0.6-1.5 0.3-4 2.2-1.3 0.1-1.1-0.8-0.9-2.3-0.5-2-0.7-5.1-0.5-1.3-0.9-0.8-1.5-0.3-1 0.2-1.2 0-1.3-0.3-2.3-1.2-1.7-1.1-1.4-2-2.5-2.7-8-0.7-4.6-3.3-9.9-4.8-5-4.7-1.9-0.8-2.4-0.2-7.3 1.8-0.8 0.1-4.9-0.8-3.3 4.2-0.7 1.3-1.1 1.4-1.3 0.8-4.6 1-6.1 2.4-3.6 1.1-1.2 0-2-0.4-1.8 0.1-2.4 0.6-4.8 2.1-2.9 1.8-3 0.7-2.5-0.3-3.6-3-1.1-1.2-0.7-0.4-12.4 0.1-4.2-3.4 2.1-4.3 0.2-2.2 0.1-4.1 1.6-6.6 2.1-3 0.1-3.4-0.9-1.3-1.2-1.5-2.5-2-2.6-1.5-3.8-1.1-6.2-3.1-19.2-14.6-2.2-2.6 0.2-0.8 0.9-0.2 0.5-0.4 0.6-0.5 1.7-3.2 0.1-0.6 0-0.9 0.1-0.4 0.1-0.4 1.4-1.6 0.7-1.1 0-0.7-0.2-0.5-0.3-0.5-0.2-0.7-0.6-5 0.3-1 0.6-1.5 0.3-1.6 0.7-7.1 0.2-1.1 0.2-0.4 0.2-0.4 0.4-0.4 0.8-0.7 0.8-0.4 1.6-1.3 5.3 0.1 2.1 0.7 1.8 1.2 1.5 1.8 3.3 4.7 2 1.9 2.5 0.7 17.1-4.1 1.6-1.4 1.8-2.5 1.7-1.7 2.2-1 5.9-0.3 1.3 0.4 1.5 0.8 1.8 2.2 0-4 0.9-15.5-1.4-8.8-0.6-1.6-2.3-1.8-0.6-5.8-3-1-2.7-3.8-0.5-1.9 0-1.5 0.2-1.1 0-1.6 0.1-0.7 0.2-0.3 0.5-0.1 2.7 0.2 0.4-0.3 0.1-0.8-0.2-1.8-1.2-2-1.7-1.4-1.9-0.7-4.4-0.6-3.8-2-3.9-1.7-7.5-1.7-2.2-2.1-0.2-0.5z m213.5 53.5l-0.4-0.5-3.2-5.7-0.7-0.9-3.7-0.3-0.4 1.4-1 0.8-2 0.6-4.3 2-8 5.2-0.6 1-1.4 1.3-1 0.7-1.5 0.4-1.6 0.2-2.9-1.4-0.9 0.9-0.8 1.2-0.3 0.6-0.4 1.4 0 1.6 1 1.6 0.9 1 0.5 1.2 0.3 1.1-1 5.1 1 1.7 0.7 0.8 0.5 1.2 1.4 0.8 7.3 0.6 3.2-0.6 3.1 0 1.6 1.1 2.2 1 1.1 0.3 2.7 0 1.2-0.8 0.6-0.7 0.4-0.9 0.4-0.6 1-0.9 1.7-0.5 5.6-0.3 8.3 1.6-2.6-5.5-0.8-2.5 0.6-4.9 0.9-3.7 0.1-0.6-0.2-0.4-0.3-0.7-0.9-0.9-0.5-2.3-0.3-1.3-1.3-1.4-0.6-1.5-1.3-1.1-2.2 0.4-0.8 1.3-0.3 0.8-0.1 0z" id="AT3" name="Niederösterreich">
  </path>
  <path d="M442 208.1l-0.3-1.9-1.8-4-8.4-8.8-1.1-1.8-1-2.1-0.6-2.4 0.2-2.4 0.7-1.2 0.8-0.3 0.8 0 0.7-0.3 1.7-2.7 0.5-0.6 4.7-3.3 1.6-1.8 2.1-3.4 1.1-1.2 1.8-1 6.6-1.3-0.1-0.4 1.8-1.5 3.9-2.2 4.4-4.2 1.9-1.4 12.4-4.9 16.4-2.9 4-2.2 11.6-10.3 1.7-2.8 0.7-3.8 0.2-0.9 0.6-0.9 0.5-1.3 0.2-1.8-0.2-5.1 0.2-1.7 0.6-1.6 1.6-3.4 0.3-1.8-0.2-1.6-1.1-1.7-0.5-3.2-0.4-0.9 0-0.6 0.6-1.3 1.1-1 3.9-1.4 4-0.6 12.3 3.5 2.1 1.1 1.9 1.5 1.9 2.8 4.8 2.2 0.3 0.3 1.1-4.8 1-2.1 0.4 0.1 2.5-0.4 0.9-0.4 1-1 0.6-0.8 2-4.5 0.7-2.4 0.4-2.6 0.1-3-0.6-5.8 0.3-2.2 1.6-1.5-1.5-0.7-0.6-0.6-1.3-2.5-0.6 0.3 0.3-1.8 3.5-7.5 4.8 1.3 2.3 1.2 2.2 1.7 2.6 2.2 2.3 1.3 0.4 0.2 2.1 1.2 0.4 0.2 2.8 1.5 1 1.2 2 3 0.8 1.5 0.6 0.6 0.8 0.3 0.7 0.5 0.3 1.1-0.2 1 0 0.2-0.5 0.1-0.5-0.1-0.1 0-0.4 0.3-0.8 1.7-0.1 0-0.5 0.2-0.3 0.5 0.6 2.5 0.5 1 2.1 2.6 1 0.8 4 1.8 16.9 1.9 9.2 3.2 0.4 0.1 0.4 0.2 1.4 0.5 0.3 0.1 0.1 0 1.2-0.1 0.9-0.4 2.4-1.9 0.3-0.1 1.3-0.6 2.8-1.2 1.8-0.8 0.9-0.9 1-1 2.7-7.1 0.4-0.3 1.3-0.9 2.9 3.3 4.7 2.5 1.4 0.4 1.8-0.4 0.4-0.2 3.2-1.5 1.5-0.2 0.3 0 0.8 0.7 0.1 1.1 0 1.2 0.4 0.8 0.9 0.1 1.9-0.6 0.7 0.1 1.3 1.7 0.7 1.7 1 1.2 1.9 0.1 1.9-1.8 0.2 0.5 2.2 2.1 7.5 1.7 3.9 1.7 3.8 2 4.4 0.6 1.9 0.7 1.7 1.4 1.2 2 0.2 1.8-0.1 0.8-0.4 0.3-2.7-0.2-0.5 0.1-0.2 0.3-0.1 0.7 0 1.6-0.2 1.1 0 1.5 0.5 1.9 2.7 3.8 3 1 0.6 5.8 2.3 1.8 0.6 1.6 1.4 8.8-0.9 15.5 0 4-1.8-2.2-1.5-0.8-1.3-0.4-5.9 0.3-2.2 1-1.7 1.7-1.8 2.5-1.6 1.4-17.1 4.1-2.5-0.7-2-1.9-3.3-4.7-1.5-1.8-1.8-1.2-2.1-0.7-5.3-0.1-1.6 1.3-0.8 0.4-0.8 0.7-0.4 0.4-0.2 0.4-0.2 0.4-0.2 1.1-0.7 7.1-0.3 1.6-0.6 1.5-0.3 1 0.6 5 0.2 0.7 0.3 0.5 0.2 0.5 0 0.7-0.7 1.1-1.4 1.6-0.1 0.4-0.1 0.4 0 0.9-0.1 0.6-1.7 3.2-0.6 0.5-0.5 0.4-0.9 0.2-0.2 0.8 2.2 2.6 19.2 14.6 6.2 3.1 3.8 1.1 2.6 1.5 2.5 2 1.2 1.5 0.9 1.3-0.1 3.4-2.1 3-1.6 6.6-0.1 4.1-0.2 2.2-2.1 4.3-7.6 6.2-17.1 6.9-1.3 1.8-0.5 1.2-1.3 1.3-2 1-3.8 1.1-3 1.8-5.3 4.1-2.9 0.9-3.5 0-2.5-0.7-2.5-1.2-6.8-4.7-1.1-0.2-1.6 0.4-4.4 2.1-5.8 1.6-2.4 1.7-0.8 0-0.6-1.7-0.2-1.3-1.3-3.4-5.4-6.4-5.2 0.7-1.9-0.4-3.1-1.2-3.6-0.7-1.6-0.6-2.9-1.8-1.1-0.1-1.3 0.2-12.7 6.4-2 1.6-1.5 2-0.7 2.5-0.3 2.2-0.2 3.5 0.1 1.7 0.4 1.9 1 1.8 1.3 1.7 1.5 1.7 0.9 1.5 1.1 2.4 0.6 2.9 0.1 2.3-0.5 1.9-0.4 0.8-0.5 0.5-3 2.6-0.3 0.7-1.5 0.4-1.1 0.6-11.1-2.2-6.8-4.4-4.2-4.3-1-2.4-0.2-2.7 0.7-2.3 1.8-3.1 0.7-1.4 0.3-1.8-0.3-1.5-2-3.5 4.3-13.5-0.5-1.5-0.9-1.6-3-0.4-2.5-1.1-1.1-0.6-0.6-0.6-0.4-0.6-0.6-1.4 0.2-0.8 0.8-0.6 4.7-0.3 1.9-0.3 1.5-1.9-2.8-2.5-21.5-4.8-1.9-1.3-1.1-1.5-0.5-1.6-1.5-6.5-0.3-2.3-0.2-2.3 0.3-5 0.3-2.1 0.4-1.5 0.4-0.9 0.7-0.5 0.8-0.2 3.2 1 1.7 0.1 1.7-0.4 1.1-1.3 0.1-1.4-1-1.2-1.1-0.8-1.2-0.6-3.6-2.6-8.1 3.8-6.9 0.8-4.5-0.6-4.7-1.6-0.6-0.3-0.6-0.4-3.5-3.7-2.9-1.7-3-0.5-5.1 0.3-2.2 0.7-1.4 1.2-0.9 2.7-0.4 0.7-1.4 1-5.6 1.5-2.4 1z" id="AT4" name="Oberösterreich">
  </path>
  <path d="M835.3 303.6l6.9 0.2 3-0.6 3-1.6 1.9-1.5 6.2-6.7 0.3-1.8 0-2.2-0.6-2.1-0.4-2.5 0.4-3.9 0.6-2 1.2-2.1 0.7-1.1 4-7.7-3.5-5.4-4.1-4.8-1.8-3.1-0.9-2.2 0-10.8 4.1-0.5 1.4-1.2 1.5-1.7 0.7-1.6 0.4-2 0.3-6.9 1.8-3.5 1.9-2 5.7-4.5 3.5-1.1 4.1-0.2 8.4 2.7 4.7-2.3 2.3-2.4 4.1-2.9 1.7-1.6 1.2-2.2 1.6-4.5 3-2.4 2.5-1.2 1.4-0.3 1.4 0.2 5-2.3 4.9-3.6 2.7-1.3 2.5-0.3 1.8 0.9 3.7 2.8 1.9 1 1.4-0.9 0.9-1.6 0.1-1.5-0.3-1.4-0.1-1.2 0.4-2.7 1.6-1.6 0.9-0.4 1.2 0.6 1.1 0.7 1.4 0.3 1-0.3 0.8-0.4 1.5-1.5 0.6 1 1.5 1.7-1.2 1.5-0.6 1.8-0.7 3.3 0.5 0.3 1.4 1.2-0.6 2.9 2.7 1.5 3.9 1.4 2.7 2.5-7.4 6.3 1.2 1.4 0 1.1-0.6 1.2-0.3 1.5-0.3 0.3-1.1 0.7-0.3 0.5 0.1 0.8 0.6 0.4 0.6 0.2 0.3 0.3-0.5 3.2-0.7 2.3-1.2 1.8-1.9 1.6-4.2 0.9-1.5 0.8 0.1 1.9 0.7 0.8 2.5 1.2 1 0.7 1.1 3.3 0.8 1.1-1.8 2 0.2 3.1 0.8 3.6 0.2 5.8 0.6 1.7 1 1.4 1.3 0.8-2.4 1.2-8.7 1.2-9.4 2.3-4.6-0.8-1.7-4.6-1.6 1.3-2.3 3.7-1.3 1.3-1.1 0.3-6.7-1.1-1.3-0.8-1.3-1.3-0.3-0.6-0.6-1.3-0.5-1.8-0.6-1.6-1.5-1.1-9.5-3.7-5-0.7-4.4 2-0.7 1.7 0.2 2.4-0.7 1.5-1 1-4.7 2.5-1.5 1.3-0.8 0.5-0.5-0.1-0.6-0.6-0.7-0.9-0.9 0.9-1.8 3-1 1.3 2.1 1.2 6.7 2.8 3.3-0.8 5.8 2.4 2.1 0.8 3.9-0.6 2.6 1.2 2.1 2.8 1 3.5-0.7 3.5 2 1.1 1.7 1.7 0.9 2.2-0.1 2.7-1.3 2.3-3.5 1.4-1.3 1.5 0.5 7.1-1.7 1.3-4.5 3.5-12.8 5.9-1.4-2.3-1.6-1.2-1.5 0.5-1.2 2.2 0.3 6.7-0.3 0.5-0.6 0.4-0.5 0.4 0 1.1 0.3 0.6 0.5 0.3 0.6 0.2 0.3 0.4 3.6 7.6 0.5 2.9-0.8 2.3-1.7 1.6-3.7 2 0.4 3.1-1.8 3.8 0.4 2.9 0.7 0.6 0.9 0 1 0.1 0.8 1.1 0.1 1.5-1 3 0 1 1.6 1 4-1.9 1.9 0.2 1.5 2.1-0.6 2.1-2.7 3.6-2.5 1.6-0.8 2.5 0.9 2.3 2.4 0.8 1.4 0.7 0.4 0.9-0.4 1-1.4 0.9-5.3 2.1-1.5 1.4 3.4 0.4 1.7 0.6 1.7 1.6 0.5 1.9-2.2 0.5-3.1 0-2 0.4-0.5 0.5-0.6 0.1-0.6-0.1-0.7-0.5-2-1.6-2.5-0.3-4.9 0.6-4.4-0.9-1.7 0.2-1.1 2-0.5 2.6-1 0.8-1.2 0.3-1.2 1-0.3 1.1 0.1 1 0 1-0.8 1.3-0.9 0.6-2.4 1.1-3.1 2.2-1.4 1.5-4.3 5.9-1.5 1.5-1.9 0.8-4.9 3-2.5 1.4-0.4 0.2 0-0.1-0.1-0.7-0.1-2-0.2-0.4-0.5-0.7-1.5-1.2-0.6-0.8-0.1-1.1 0.5-2.9 0.1-1.8 0.4-1.7 0.9-1.6 4.3-3.8 5.7-7.6 3.2-4.6 0.8-1.9 0.1-1.1-0.3-1.5-4.3-5.5-1.1-2-0.4-2.4-0.2-1.8 1.3-5.5 0-4.7-3.3-12.7-0.1-2.8-1-6.6-1.1-4.9-1.3-4.4-2.1-5-0.2-1.5 0.4-1.5 1.8-2.5 1.2-1.2 1.5-0.2 0.6 1 0.4 1.2 0.4 0.7 2.2-1.2 6.9-7.3z" id="AT1" name="Burgenland">
  </path>
  <path d="M123.4 333.7l1.9 5 1.5 7.9 0.1 1.7-0.3 4.9-1.8 4.4-4.6 7-1.2 3.3-1.4 7-0.2 2.7 0.1 2.1 0.4 2.4 0.1 1.9-0.4 3.1-0.7 2.1-1.3 1.8-1.5 1.3-1.5 2-0.4 1.4 0.3 1.8 2.7 4.4 2.1 5.7 0.1 0.5-1.6 0-5.2-1.7-2.6-1.5-4.6-4.4-12.8-4.2-3-2.2-1.5-2.2-0.2-1.6 0.4-1.9 0.3-4.1 0.5-1.7 0-1-0.5-0.5-0.7 0-0.5-0.4 0.2-2-22.5-7.1-2-0.3-6.3 0.7-2.2-0.5 0.9-1.1 2-2.6 0.4-0.5 0.8-4.6-0.2-0.7-0.5-2-0.5-1.7-2.8-4-1.8-1.1-1.8-1 0-1.5 1.2-2.7 0.1-1.2-1-2.5-1.1-1.5-0.6-1.5 0.4-1 0.4-1.5-1.5-1.4-0.5-0.4-1-1.6 3.8-6.6 4.1-4.9 0.4-1.2 0.6-3.1 0.6-1.6 4.6-5.8 1.2-2.7 0.1-7.4-3.5-3.1-4.4-2-3.5-5.3-0.2-1.1-0.7-3.1 0.3 0.2 0.5 0.1 7 1.9 7.6-0.1 3.2-1.5 1.8-2.7 1.4-3.3 2.6-3 1.8-0.9 1.8-0.2 1.6 0.6 1.4 1.5 0.4 2.1-0.2 2.2 0.5 1.8 2.4 1.3 0.9-0.1 1.5-0.9 0.6-0.2 3.6 1.3 3.5 0.3 1.8-0.3 1.5-1.2 0.3 2.9 1.3 1.7 1.5 1.5 1 2.3 0 0.6 0.1 0.5 0.2 1 1.3 0.8 1-0.4 1.1-1 1.3-0.6 5.9 8.6 1 2.1-0.5 1.9-2.7 2.1 1.3 1.5 0.3 1.8 0.1 1.9 0.6 1.7 1.2 1.1 0.8 0 0.9-0.7 1.6-0.7 0.6 0 1.2 0.8 0.6 0 0.5-0.4 1.4-1.6 5.3-0.9 2.2 1.2-0.1 3.1-2.2 6.5 0.3 1.2 0.1 1.1-0.3 1.1-0.6 0.6-1.6 0.5-0.5 0.3-1.1 2-0.4 1.1 0.5 0.3 1.8-0.2z" id="AT8" name="Vorarlberg">
  </path>
  <path d="M123.4 333.7l7.7-1 2.6-1 5.3-3.3 2.3-2.1 2.2-2.9 2.6-5.3 0.7-1.1 1.3-0.9 2.5-0.8 1-0.7 2-2.7 1.7-3.5 1.1-4 0-3.8-0.5-2.2-0.7-1.5-1-1.2-1.7-0.9 1.2-7 0.2-1.6-0.8-2-1-2-0.2-1.5 1.8-0.7 2-0.4 0.9-0.3 0.4 0.3 0.5 1.7-0.1 0.7-0.6 0.8-0.4 1.1 0.2 1.5 0.6 0.9 1 0.6 1.8 0.9 5.1 0.8 1.4-0.3 1.5-1.2 2.5-3.4 1.6-1.1 2.9 0 15.7 6 0.5 0.5 0.4 0.9 0.6 0.9 1 0.3 3.5-0.4 4.8-2.2 1.7-0.5 1.7 0.1 1.2 0.7 2.8 2.1-1 1.2-3.9 2.6 0.8 1.4 6.2 2.9 5.9 6.4 0.4 0.8 0 1.2-0.2 1.2-0.4 0.8-0.3 0 1.2 2.4 1.7 1 12.4 0.2 2.3-0.7 7.8-5.4 3-0.9 2.6 1.1-0.3 4.8 2.9 0.3 2.6-1.2 1.7-1.8 1.5-2.2 2.3-2.1 2.3-0.7 5.1-0.1 2-0.9 1-1.7-0.5-1.3-1.3-0.9-1.4-0.4 5.6-6.5 2.7-0.6 2.9 0.4 2.7 0.8 5.6-0.9 2.6-1 2.2-2.4 0.6-1.7 0.9-4.1 0.8-1.8 3.4-2.9 0.4-0.5 2.2 0 5.2 1.1 9.7 0 6.7 1.4 1.2-0.4 1.2-3 1.4-0.8 10-2.1 27.4 1.2 0.9-0.2 3.4-4.3 0.4-1.2 0.2-1.6-0.2-4.7-0.4-1-0.6-0.4-0.9-1-0.9-1.2-0.4-0.9-0.2-1.5 1.8-0.8 2.9-2.3 1-0.7 1.8-0.8 0.3 0-0.4 0.8-0.3 1.9-0.4 1.4-0.8 1-0.4 1.3 0.7 1.9 1.2 1.1 1.3-0.2 2.6-1.4 2.6-0.4 6.9 1.5 2-0.3 4.7-1.8 2 0.3 0.5 1.1 1.3 3.7 0.6 1.5 1 1.1 3.5 2.9 1.7 0.8 2.4 0.1 2.6-0.5 1.8-0.8 1.2-1 3 5.3 2.5 2.3 4.2 2.8 1.1 1.2 0.4 0.9-0.1 0.8-0.6 1.4 0.2 1.4 0.4 2.1 2.3 5.9 0.3 1.1-0.2 0.7-0.6 1.3-0.8 1.4-2.4 3-1.2 2.1-2.5 5.5-0.9 1.3-0.9 1.1-1.1 0.9-1.2 0.8-1.3 0.6-5.9 0.6-1.2 0.3-0.9 0.4-0.7 0.9-0.8 1.6-1.1 3.3-1.2 1.9-1.5 1.4-1.5 0.9-2.3 0.8-3.9 0.6-1.8-0.1-1.6-0.5-2.6-1.5-1.5-0.3-1.7 0.2-4.2 2.6-13.3 4.8-3.7-0.1-1.6 0.3-3.3 1.8 0.2 3.5-1.6 6.9-0.3 2.6 0 3.2 0.3 1.9 0.6 1.8 0.7 1.1 2 1.7 0.9 0.9 0.9 2.4 0.5 1.8 0.3 6.6-0.1 0.7 0 0.1-2 0.4-12.1 6.3-8.5 0.4-5.3 1.9-5 2.7-4.1 3.3-5.5 0.8-1.3 0.9-2.3 1.9-1.4 0.3-2.2-0.8-3.9-2.9-2.2-0.2-0.9 0.1-0.9-0.1-0.2 0-0.1 0-6.1-1.3-2.8 0.3-3.5 1-1.2 0.6-1.1 0.2-1.1-0.2-1-0.6-0.6-0.8-0.7-0.7-0.7-0.4-2.1-0.5-1.2 0.2-1.1 0.8-0.9 1.4-4.1 4-3.6-0.2-3.7-1.8-4.3-1-8.3 1.4-8.3 2.7-2.1 1.3-7.7 7.7-1 2.1-1.3 6.2-2.2 5.3-0.1 0.7 0.1 1.8-0.2 0.9-0.5 0.6-1.3 0.5-0.5 0.5-2.7 4.6-1.6 1.8-1.7 0.2-2.1-0.7-4.1-0.4-2.1 0.3-3.9 1.3-1.2 0.1-1.2-0.5-2.1-1.7-1-0.6-1.3 0-2.2 0.7-1.2-0.1-3.4-1.9-1.4-0.5-2.5 0.8-1.3-0.1-0.7-1.5 0.5-0.8 2.7-2.2 0.6-1.2-1.2-1.8-9.1-5.4-1.8-0.5-2.2 0.2-12.1 3.4-4.9-0.6-3.9-3.1-0.3-3.8 1.5-5.9-0.6-2.9-1.1-1.3-4-3.2-2.5-4.1-1.3-1.3-0.6-0.4-0.7-0.1-0.6 0.1-3.5 2-3 3.4-2.1 4 0 3.3-3 0.1-2.3-0.6-1.9 0.4-1.9 3.1-0.5 2.2-0.1 1.4-0.3 1.4-1.3 1.7-5.2 2.7-3 0.9-0.9-0.1-0.1-0.5-2.1-5.7-2.7-4.4-0.3-1.8 0.4-1.4 1.5-2 1.5-1.3 1.3-1.8 0.7-2.1 0.4-3.1-0.1-1.9-0.4-2.4-0.1-2.1 0.2-2.7 1.4-7 1.2-3.3 4.6-7 1.8-4.4 0.3-4.9-0.1-1.7-1.5-7.9-1.9-5z m241.8 36l3.3-1.8 10.6-4.8 7.1-6.9 2-0.9 2.5-0.4 2.8 0 4.2-0.8 3.1 0.1 3.5 1.2 3.2 0.2 2.3 0.6 2 1.1 4.7 4.5 0.3 3.4 1 1.3 1.5 1.3 10.3 3.5 1 1.3-0.1 1.9-1.5 3.6-0.3 1.3-0.2 1.3 0 0.7 0.1 0.8 0.4 1.7 0.8 1.5 1.2 1.6 1 2 2.4 2.2 1.2 0.9 1.5 1.6 0.9 1.9 0.6 2.4 0.3 2.3 0.8 2.7 1.2 1.8 5.5 5.8 7.2 10 0.7 1.4-0.1 0.6-0.1 0.3-0.2 0.5-0.4 0.4-0.4 0.1-1-0.2-4.2-3.2-1.3-0.5-1.4 0.2-4.8 2.1-10.6 1.6-2.6 1.3-0.3 3-0.6 2.1-0.9 2.5-3.9 7.8-0.6 1.3-0.2-0.1-5.9-0.6-6.9 1-1.8-0.2-1.9-1-3.7-2.5-3.6-0.6-2.9-0.5-4.8-2-4.1-3.7-2.3-5.5-1-3.8-2-1.3-2.5-0.4-2.5-0.9-1.1-0.8-0.7-0.7-0.3-1.2 0-2.3 0.3-2 0.5-1.2 0.3-1.2 0-2.2-1.1-3.8-1.9-1.3-5-0.2-1.6-0.6-0.8-0.8-0.6-1.1-1.4-1.4-1.3-0.7-2.8-0.5-1.3-0.5 1.8-1.7 0-1.6-0.8-1.7-0.8-1.9-0.7-4-0.5-2-0.8-1.8 1.2-3 7.2-4.1 2.6-3.4 0-2.4z" id="AT7" name="Tirol">
  </path>
  <path d="M408.1 268.6l4.1-3.8 2.3-1.1 4.2-1 4.3 0 6.7 1.7 2-0.3-1.2 3.1 1.9 2.3 3.1 2.1 2.3 2.3-3.2 1.6-1.5 4.1 0.7 4.3 2.9 2.4 1.8 0.3 1.2 0.4 1 0.8 5.4 6.1 5.8 4.4 1.4 0.5 1-0.3 0.9-0.6 1.3 0 1.1 0.6 0.7 0.7 0.7 0.5 1.3-0.1 0.8-0.7 3.4-4.1 0-1.4-0.3-1.1-0.4-0.9-0.2-1-0.1-1.1 0-3 0.2-0.5 1.2-2.9 0.1-0.2-0.2 0.1-0.1-4 0.3 0.1 1.9-2.5 0.1-0.5 1.4-3.5 0.3-0.4 0.2-2.2 0.1-2.1-0.3-2.3-1-2.5-2.3-4-1.5-1.8-1.4-1.1-1.9-0.3-3 1.3-1.8 0.3-6.6-1.2-2-2 2.2-3.5 0.1 0 0.7-1.2 0.2-1.2 0.1-1.1 0.2-1.2 0.7-1.4 7.7-12.3-0.6-0.6-2.6-3.9-4-9.4-2-1.9-1-0.6-2.4-2.4-2.8-1.8-1-1.4-0.6-1.8-0.1-0.3 2.4-1 5.6-1.5 1.4-1 0.4-0.7 0.9-2.7 1.4-1.2 2.2-0.7 5.1-0.3 3 0.5 2.9 1.7 3.5 3.7 0.6 0.4 0.6 0.3 4.7 1.6 4.5 0.6 6.9-0.8 8.1-3.8 3.6 2.6 1.2 0.6 1.1 0.8 1 1.2-0.1 1.4-1.1 1.3-1.7 0.4-1.7-0.1-3.2-1-0.8 0.2-0.7 0.5-0.4 0.9-0.4 1.5-0.3 2.1-0.3 5 0.2 2.3 0.3 2.3 1.5 6.5 0.5 1.6 1.1 1.5 1.9 1.3 21.5 4.8 2.8 2.5-1.5 1.9-1.9 0.3-4.7 0.3-0.8 0.6-0.2 0.8 0.6 1.4 0.4 0.6 0.6 0.6 1.1 0.6 2.5 1.1 3 0.4 0.9 1.6 0.5 1.5-4.3 13.5 2 3.5 0.3 1.5-0.3 1.8-0.7 1.4-1.8 3.1-0.7 2.3 0.2 2.7 1 2.4 4.2 4.3 6.8 4.4-0.9 2.6-0.9 3.3-0.1 1.3 1.1 6.3 3.5 11.8 3.2 6.5 3.7 3.6 2.1 1.4 1.7 0.5 1.7-0.6 1.6-1.3 2-0.8 3.4-0.4 1.8-1.2 1.8-0.6 1.5 1.1 2 3.9 2.6 4.1 0.6 1.7 0.3 1.5 0.6 1.8 0.9 1.6 4 5.1 3.5 2.5 1 1.5-0.3 1.8-2.3 3-3.5 3.4-1 1.6-0.2 2.2 0.2 3.5-0.6 1.9-1.3 3.4-5.2 9.5-4.6 5.9-3.4-4.6-10.3-8-4.2-2.2-3-0.9-5.3-0.5-12-2.5-2.6-0.2-11-2.9-4.7-1.5-2.2 0.2-1.8 0.4-3 2.9-2.7 2.2-6.3 3-4.7 1.1-8.9 0.5-3.6-0.4-2.2-0.6-2-1.1-9.5-6.2-5.8-1.8-3.8-0.5-7.3-1.8-5.5-2.7-4.7-3-1.5-0.7-1.1-0.1-0.6 0.3-0.3 0.5-0.2 0.4-0.1 0.6-0.2 0.5-0.4 0.6-0.4 0.4-1.5 1-4.7-4.5-2-1.1-2.3-0.6-3.2-0.2-3.5-1.2-3.1-0.1-4.2 0.8-2.8 0-2.5 0.4-2 0.9-7.1 6.9-10.6 4.8-3.3 1.8 0-2.2-2.8-1-5.6 1.1 0-0.1 0.1-0.7-0.3-6.6-0.5-1.8-0.9-2.4-0.9-0.9-2-1.7-0.7-1.1-0.6-1.8-0.3-1.9 0-3.2 0.3-2.6 1.6-6.9-0.2-3.5 3.3-1.8 1.6-0.3 3.7 0.1 13.3-4.8 4.2-2.6 1.7-0.2 1.5 0.3 2.6 1.5 1.6 0.5 1.8 0.1 3.9-0.6 2.3-0.8 1.5-0.9 1.5-1.4 1.2-1.9 1.1-3.3 0.8-1.6 0.7-0.9 0.9-0.4 1.2-0.3 5.9-0.6 1.3-0.6 1.2-0.8 1.1-0.9 0.9-1.1 0.9-1.3 2.5-5.5 1.2-2.1 2.4-3 0.8-1.4 0.6-1.3 0.2-0.7-0.3-1.1-2.3-5.9-0.4-2.1-0.2-1.4 0.6-1.4 0.1-0.8-0.4-0.9-1.1-1.2-4.2-2.8-2.5-2.3-3-5.3z" id="AT5" name="Salzburg">
  </path>
  <path d="M420.9 441.9l0.6-1.3 3.9-7.8 0.9-2.5 0.6-2.1 0.3-3 2.6-1.3 10.6-1.6 4.8-2.1 1.4-0.2 1.3 0.5 4.2 3.2 1 0.2 0.4-0.1 0.4-0.4 0.2-0.5 0.1-0.3 0.1-0.6-0.7-1.4-7.2-10-5.5-5.8-1.2-1.8-0.8-2.7-0.3-2.3-0.6-2.4-0.9-1.9-1.5-1.6-1.2-0.9-2.4-2.2-1-2-1.2-1.6-0.8-1.5-0.4-1.7-0.1-0.8 0-0.7 0.2-1.3 0.3-1.3 1.5-3.6 0.1-1.9-1-1.3-10.3-3.5-1.5-1.3-1-1.3-0.3-3.4 1.5-1 0.4-0.4 0.4-0.6 0.2-0.5 0.1-0.6 0.2-0.4 0.3-0.5 0.6-0.3 1.1 0.1 1.5 0.7 4.7 3 5.5 2.7 7.3 1.8 3.8 0.5 5.8 1.8 9.5 6.2 2 1.1 2.2 0.6 3.6 0.4 8.9-0.5 4.7-1.1 6.3-3 2.7-2.2 3-2.9 1.8-0.4 2.2-0.2 4.7 1.5 11 2.9 2.6 0.2 12 2.5 5.3 0.5 3 0.9 4.2 2.2 10.3 8 3.4 4.6 4.6 3.8 1.7 1.2 1.1 0.5 2.2-0.2 2.1-0.7 7.3-5.7 4.5-2.2 1.8-3.1 0.5-1.2 0.5-0.9 1-1.2 1.9-1.4 13-6.2 3.5-0.7 4.2 0.1 3.1 1.4 4.8 3.4 8.5 2.7 2 0.9 1.2 1 0.3 0.5 1.1 0.2 2.1 0.1 12.2-4.3 3.2 0.3 7.8-0.6 3.2 1.4 14.7-1.2 13.2-3.1 1.8 0.3 1.2 0.8 1.8 1.4 4.7 5.8 9.4 14.4-0.3 5.2-0.7 2.2-0.8 1.5-0.6 2.1-0.2 1 0.2 1.6 0.6 2.3 1.8 4.2 1.4 6.2 0.3 5.8 1.4 4.1 7.4 8.6 1 1.2 0.1 0.1-2.4-0.2-2.8-0.4-6.9 2.3-4.4 6.3-2.3-3.3-1.7-0.3-1.7 1-2.6 1.7-0.4 0-2.1 0.3-1.6-0.2-1.5 0.6-2 3-1.4 2.9-0.9 2.8-0.9 2.6-1.3 2.9-0.9 2.2-0.7 0.6-2.6 1.2-3.1 0.5-1-0.7-2 0.9-0.7 0.8-0.6 1.2-1.4 1.7-0.9 2.1-0.8-0.2-0.8-0.1-0.5 0.2-2.4 2.5-1.2 0.8-1.2 0.3-2.6 0.2-1.2 0.5-1.7 2.6-1 3.3-0.6 1.5-0.5 1.4-2.1 0.9-1.6-1.7-1.3-3-1.7-2.2-4.1 1-2-0.3-1.6-0.8-2-0.9-0.7-0.8-0.4-1-0.6-0.8-1.2-0.3-4 0.9-14.3-0.4-11-0.4-0.3 0-1.2-0.4-6.7-5.8-1.8-0.8-1.9-0.6-2.1-0.1-2.1 0.4-2 0.3-1.9-0.2-10.9-5.2-3.6-0.6-7.7 1.3-1.7 0-7.8-1.9-1.9-0.1-1.8 0.3-1.8-0.2-14.4-4.7-5.1-0.2-0.9-0.6-1.7-1.9-0.8-0.3-7.3 0.5-5.2-0.9-12.1 2.6-4.9-0.3-2.5-1-7.5-4.6-9.8-2.3-27.9-2-6.8-4.5-3-1-1-0.3-0.9 0.1-1.9 0.8-1.2 0-1.1-0.5-2.1-1.6-1-0.5z" id="AT2" name="Kärnten">
  </path>
  <path d="M662.6 246l4.2 3.4 12.4-0.1 0.7 0.4 1.1 1.2 3.6 3 2.5 0.3 3-0.7 2.9-1.8 4.8-2.1 2.4-0.6 1.8-0.1 2 0.4 1.2 0 3.6-1.1 6.1-2.4 4.6-1 1.3-0.8 1.1-1.4 0.7-1.3 3.3-4.2 4.9 0.8 0.8-0.1 7.3-1.8 2.4 0.2 1.9 0.8 5 4.7 9.9 4.8 4.6 3.3 8 0.7 2.5 2.7 1.4 2 1.7 1.1 2.3 1.2 1.3 0.3 1.2 0 1-0.2 1.5 0.3 0.9 0.8 0.5 1.3 0.7 5.1 0.5 2 0.9 2.3 1.1 0.8 1.3-0.1 4-2.2 1.5-0.3 0.9 0.6 0.6 0.7 0.8 1.4 0.1 0.5 0.2 1 0.1 1.2-0.2 1.3-0.5 1.7-0.1 0.8 0.3 1.1 0.7 0.4 0.9 0.2 2.9 0 3.1 2.4 1.5 2.8 1.4 4 9.8 1.7 2.9 1.6 1.1 1.1 0.9 0.4 0.9 0 1.2-0.4 2.8-1.4 0.5 0.2 0.4 0.5 0.4 0.9 0.3 1.3 0.1 1.2 0.2 0.8 0.7 1.9 1.3 2.6 4.1 3.5-6.9 7.3-2.2 1.2-0.4-0.7-0.4-1.2-0.6-1-1.5 0.2-1.2 1.2-1.8 2.5-0.4 1.5 0.2 1.5 2.1 5 1.3 4.4 1.1 4.9 1 6.6 0.1 2.8 3.3 12.7 0 4.7-1.3 5.5 0.2 1.8 0.4 2.4 1.1 2 4.3 5.5 0.3 1.5-0.1 1.1-0.8 1.9-3.2 4.6-5.7 7.6-4.3 3.8-0.9 1.6-0.4 1.7-0.1 1.8-0.5 2.9 0.1 1.1 0.6 0.8 1.5 1.2 0.5 0.7 0.2 0.4 0.1 2 0.1 0.7 0 0.1-4.9 1.2-0.7 0.4-1.2 1.2 0.1 0.4 0.6 0.4 0.1 1.2-0.9 5.4 0 0.5-0.1 2.6 0.1 3 1.3 4.3 2.6 1.6 0.6 1.3 0.6 1.2 0.1 0.2 0.3 4-2.3-2.8-1.3-1-2.3-0.4-2.5-0.4-8.1-4.1-3.3-0.7-3.3 0.3-4.6 1.9-3.5 1.4-3.2 0.2-9.1-1.4-1.9-1.2-0.4 2.7 0 2.2-0.7 1.5-0.6 0.5-0.6 0.4-1.6 0.5-1.8-0.5-2.5 0-2.5 0.7-1.9 1.4-1.1 2.4-0.1 0.4-0.3 1.6-0.5 1-0.3 0.7-2.2 1.8-3.6 0.6-2.7-1.7-0.5-0.5-2.1-1.8-3.6-1.4-6.6 0.4-15.2 0.8-3.8-0.4-8-0.9-0.1-0.1-1-1.2-7.4-8.6-1.4-4.1-0.3-5.8-1.4-6.2-1.8-4.2-0.6-2.3-0.2-1.6 0.2-1 0.6-2.1 0.8-1.5 0.7-2.2 0.3-5.2-9.4-14.4-4.7-5.8-1.8-1.4-1.2-0.8-1.8-0.3-13.2 3.1-14.7 1.2-3.2-1.4-7.8 0.6-3.2-0.3-12.2 4.3-2.1-0.1-1.1-0.2-0.3-0.5-1.2-1-2-0.9-8.5-2.7-4.8-3.4-3.1-1.4-4.2-0.1-3.5 0.7-13 6.2-1.9 1.4-1 1.2-0.5 0.9-0.5 1.2-1.8 3.1-4.5 2.2-7.3 5.7-2.1 0.7-2.2 0.2-1.1-0.5-1.7-1.2-4.6-3.8 4.6-5.9 5.2-9.5 1.3-3.4 0.6-1.9-0.2-3.5 0.2-2.2 1-1.6 3.5-3.4 2.3-3 0.3-1.8-1-1.5-3.5-2.5-4-5.1-0.9-1.6-0.6-1.8-0.3-1.5-0.6-1.7-2.6-4.1-2-3.9-1.5-1.1-1.8 0.6-1.8 1.2-3.4 0.4-2 0.8-1.6 1.3-1.7 0.6-1.7-0.5-2.1-1.4-3.7-3.6-3.2-6.5-3.5-11.8-1.1-6.3 0.1-1.3 0.9-3.3 0.9-2.6 11.1 2.2 1.1-0.6 1.5-0.4 0.3-0.7 3-2.6 0.5-0.5 0.4-0.8 0.5-1.9-0.1-2.3-0.6-2.9-1.1-2.4-0.9-1.5-1.5-1.7-1.3-1.7-1-1.8-0.4-1.9-0.1-1.7 0.2-3.5 0.3-2.2 0.7-2.5 1.5-2 2-1.6 12.7-6.4 1.3-0.2 1.1 0.1 2.9 1.8 1.6 0.6 3.6 0.7 3.1 1.2 1.9 0.4 5.2-0.7 5.4 6.4 1.3 3.4 0.2 1.3 0.6 1.7 0.8 0 2.4-1.7 5.8-1.6 4.4-2.1 1.6-0.4 1.1 0.2 6.8 4.7 2.5 1.2 2.5 0.7 3.5 0 2.9-0.9 5.3-4.1 3-1.8 3.8-1.1 2-1 1.3-1.3 0.5-1.2 1.3-1.8 17.1-6.9 7.6-6.2z" id="AT6" name="Steiermark">
  </path>
  <path d="M875.2 153.4l0.1 0 0.3-0.8 0.8-1.3 2.2-0.4 1.3 1.1 0.6 1.5 1.3 1.4 0.3 1.3 0.5 2.3 0.9 0.9 0.3 0.7 0.2 0.4-0.1 0.6-0.9 3.7-0.6 4.9 0.8 2.5 2.6 5.5-8.3-1.6-5.6 0.3-1.7 0.5-1 0.9-0.4 0.6-0.4 0.9-0.6 0.7-1.2 0.8-2.7 0-1.1-0.3-2.2-1-1.6-1.1-3.1 0-3.2 0.6-7.3-0.6-1.4-0.8-0.5-1.2-0.7-0.8-1-1.7 1-5.1-0.3-1.1-0.5-1.2-0.9-1-1-1.6 0-1.6 0.4-1.4 0.3-0.6 0.8-1.2 0.9-0.9 2.9 1.4 1.6-0.2 1.5-0.4 1-0.7 1.4-1.3 0.6-1 8-5.2 4.3-2 2-0.6 1-0.8 0.4-1.4 3.7 0.3 0.7 0.9 3.2 5.7 0.4 0.5z" id="AT9" name="Wien">
  </path>
 </g>
 <g id="points">
  <circle class="46.510199611979864|9.902513977572692" cx="90.9" cy="466.6" id="0">
  </circle>
  <circle class="47.562652152449125|13.716105486617472" cx="545.5" cy="282.5" id="1">
  </circle>
  <circle class="48.8782178280357|16.766978693853297" cx="909.1" cy="47.2" id="2">
  </circle>
 </g>
 <g id="label_points">
  <circle class="Niederösterreich" cx="775.7" cy="152.8" id="AT3">
  </circle>
  <circle class="Oberösterreich" cx="563" cy="181.1" id="AT4">
  </circle>
  <circle class="Burgenland" cx="849.3" cy="332.6" id="AT1">
  </circle>
  <circle class="Vorarlberg" cx="85" cy="336.1" id="AT8">
  </circle>
  <circle class="Tirol" cx="308.9" cy="332.6" id="AT7">
  </circle>
  <circle class="Salzburg" cx="490.7" cy="317.4" id="AT5">
  </circle>
  <circle class="Kärnten" cx="600.9" cy="425.3" id="AT2">
  </circle>
  <circle class="Steiermark" cx="748" cy="343.5" id="AT6">
  </circle>
  <circle class="Wien" cx="863.9" cy="164.8" id="AT9">
  </circle>
 </g>
</svg>